<mxfile host="app.diagrams.net" agent="Mozilla/5.0 (Windows NT 10.0; Win64; x64) AppleWebKit/537.36 (KHTML, like Gecko) Chrome/132.0.0.0 Safari/537.36" version="26.0.11">
  <diagram name="Page-1" id="e18R6_LnfPKh5nC57Hlv">
    <mxGraphModel dx="800" dy="438" grid="1" gridSize="10" guides="1" tooltips="1" connect="1" arrows="1" fold="1" page="1" pageScale="1" pageWidth="850" pageHeight="1100" math="0" shadow="0">
      <root>
        <mxCell id="0" />
        <mxCell id="1" parent="0" />
        <mxCell id="m_qxUJUoMmuEMGVjWjaj-1" value="" style="endArrow=none;html=1;rounded=0;" edge="1" parent="1">
          <mxGeometry width="50" height="50" relative="1" as="geometry">
            <mxPoint x="100" y="320" as="sourcePoint" />
            <mxPoint x="170" y="320" as="targetPoint" />
          </mxGeometry>
        </mxCell>
        <mxCell id="m_qxUJUoMmuEMGVjWjaj-2" value="" style="endArrow=none;html=1;rounded=0;" edge="1" parent="1">
          <mxGeometry width="50" height="50" relative="1" as="geometry">
            <mxPoint x="100" y="360" as="sourcePoint" />
            <mxPoint x="170" y="360" as="targetPoint" />
          </mxGeometry>
        </mxCell>
        <mxCell id="m_qxUJUoMmuEMGVjWjaj-3" value="" style="endArrow=none;html=1;rounded=0;" edge="1" parent="1">
          <mxGeometry width="50" height="50" relative="1" as="geometry">
            <mxPoint x="100" y="400" as="sourcePoint" />
            <mxPoint x="170" y="400" as="targetPoint" />
          </mxGeometry>
        </mxCell>
        <mxCell id="m_qxUJUoMmuEMGVjWjaj-4" value="" style="endArrow=none;html=1;rounded=0;" edge="1" parent="1">
          <mxGeometry width="50" height="50" relative="1" as="geometry">
            <mxPoint x="100" y="440" as="sourcePoint" />
            <mxPoint x="170" y="440" as="targetPoint" />
          </mxGeometry>
        </mxCell>
        <mxCell id="m_qxUJUoMmuEMGVjWjaj-5" value="a0&lt;div&gt;&lt;br&gt;&lt;/div&gt;" style="text;html=1;align=center;verticalAlign=middle;resizable=0;points=[];autosize=1;strokeColor=none;fillColor=none;" vertex="1" parent="1">
          <mxGeometry x="80" y="303" width="40" height="40" as="geometry" />
        </mxCell>
        <mxCell id="m_qxUJUoMmuEMGVjWjaj-6" value="a1&lt;div&gt;&lt;br&gt;&lt;/div&gt;" style="text;html=1;align=center;verticalAlign=middle;resizable=0;points=[];autosize=1;strokeColor=none;fillColor=none;" vertex="1" parent="1">
          <mxGeometry x="80" y="343" width="40" height="40" as="geometry" />
        </mxCell>
        <mxCell id="m_qxUJUoMmuEMGVjWjaj-9" value="b0&lt;div&gt;&lt;br&gt;&lt;/div&gt;" style="text;html=1;align=center;verticalAlign=middle;resizable=0;points=[];autosize=1;strokeColor=none;fillColor=none;" vertex="1" parent="1">
          <mxGeometry x="80" y="383" width="40" height="40" as="geometry" />
        </mxCell>
        <mxCell id="m_qxUJUoMmuEMGVjWjaj-10" value="b1&lt;div&gt;&lt;br&gt;&lt;/div&gt;" style="text;html=1;align=center;verticalAlign=middle;resizable=0;points=[];autosize=1;strokeColor=none;fillColor=none;" vertex="1" parent="1">
          <mxGeometry x="80" y="423" width="40" height="40" as="geometry" />
        </mxCell>
        <mxCell id="m_qxUJUoMmuEMGVjWjaj-11" value="" style="endArrow=none;html=1;rounded=0;" edge="1" parent="1">
          <mxGeometry width="50" height="50" relative="1" as="geometry">
            <mxPoint x="170" y="320" as="sourcePoint" />
            <mxPoint x="170" y="190" as="targetPoint" />
          </mxGeometry>
        </mxCell>
        <mxCell id="m_qxUJUoMmuEMGVjWjaj-12" value="" style="endArrow=none;html=1;rounded=0;" edge="1" parent="1">
          <mxGeometry width="50" height="50" relative="1" as="geometry">
            <mxPoint x="170" y="360" as="sourcePoint" />
            <mxPoint x="200" y="110" as="targetPoint" />
            <Array as="points">
              <mxPoint x="200" y="360" />
            </Array>
          </mxGeometry>
        </mxCell>
        <mxCell id="m_qxUJUoMmuEMGVjWjaj-13" value="" style="endArrow=none;html=1;rounded=0;" edge="1" parent="1">
          <mxGeometry width="50" height="50" relative="1" as="geometry">
            <mxPoint x="150" y="400" as="sourcePoint" />
            <mxPoint x="220" y="200" as="targetPoint" />
            <Array as="points">
              <mxPoint x="220" y="400" />
            </Array>
          </mxGeometry>
        </mxCell>
        <mxCell id="m_qxUJUoMmuEMGVjWjaj-15" value="" style="shape=or;whiteSpace=wrap;html=1;" vertex="1" parent="1">
          <mxGeometry x="260" y="100" width="30" height="40" as="geometry" />
        </mxCell>
        <mxCell id="m_qxUJUoMmuEMGVjWjaj-16" value="" style="shape=or;whiteSpace=wrap;html=1;" vertex="1" parent="1">
          <mxGeometry x="260" y="150" width="30" height="40" as="geometry" />
        </mxCell>
        <mxCell id="m_qxUJUoMmuEMGVjWjaj-17" value="" style="shape=or;whiteSpace=wrap;html=1;" vertex="1" parent="1">
          <mxGeometry x="450" y="180" width="30" height="40" as="geometry" />
        </mxCell>
        <mxCell id="m_qxUJUoMmuEMGVjWjaj-18" value="" style="shape=or;whiteSpace=wrap;html=1;" vertex="1" parent="1">
          <mxGeometry x="380" y="170" width="30" height="40" as="geometry" />
        </mxCell>
        <mxCell id="m_qxUJUoMmuEMGVjWjaj-19" value="" style="shape=or;whiteSpace=wrap;html=1;" vertex="1" parent="1">
          <mxGeometry x="320" y="160" width="30" height="40" as="geometry" />
        </mxCell>
        <mxCell id="m_qxUJUoMmuEMGVjWjaj-20" value="" style="endArrow=none;html=1;rounded=0;entryX=0.3;entryY=0.6;entryDx=0;entryDy=0;entryPerimeter=0;" edge="1" parent="1" target="m_qxUJUoMmuEMGVjWjaj-40">
          <mxGeometry width="50" height="50" relative="1" as="geometry">
            <mxPoint x="220" y="200" as="sourcePoint" />
            <mxPoint x="220" y="160" as="targetPoint" />
            <Array as="points">
              <mxPoint x="220" y="160" />
            </Array>
          </mxGeometry>
        </mxCell>
        <mxCell id="m_qxUJUoMmuEMGVjWjaj-38" value="" style="endArrow=none;html=1;rounded=0;" edge="1" parent="1" target="m_qxUJUoMmuEMGVjWjaj-37">
          <mxGeometry width="50" height="50" relative="1" as="geometry">
            <mxPoint x="170" y="440" as="sourcePoint" />
            <mxPoint x="245" y="180" as="targetPoint" />
            <Array as="points">
              <mxPoint x="240" y="440" />
            </Array>
          </mxGeometry>
        </mxCell>
        <mxCell id="m_qxUJUoMmuEMGVjWjaj-37" value="" style="shape=waypoint;sketch=0;size=6;pointerEvents=1;points=[];fillColor=none;resizable=0;rotatable=0;perimeter=centerPerimeter;snapToPoint=1;" vertex="1" parent="1">
          <mxGeometry x="230" y="220" width="20" height="20" as="geometry" />
        </mxCell>
        <mxCell id="m_qxUJUoMmuEMGVjWjaj-39" style="edgeStyle=orthogonalEdgeStyle;rounded=0;orthogonalLoop=1;jettySize=auto;html=1;entryX=0;entryY=0.75;entryDx=0;entryDy=0;entryPerimeter=0;" edge="1" parent="1" source="m_qxUJUoMmuEMGVjWjaj-37" target="m_qxUJUoMmuEMGVjWjaj-16">
          <mxGeometry relative="1" as="geometry">
            <Array as="points">
              <mxPoint x="240" y="180" />
            </Array>
          </mxGeometry>
        </mxCell>
        <mxCell id="m_qxUJUoMmuEMGVjWjaj-41" value="" style="edgeStyle=orthogonalEdgeStyle;rounded=0;orthogonalLoop=1;jettySize=auto;html=1;entryX=0;entryY=0.25;entryDx=0;entryDy=0;entryPerimeter=0;exitX=1.085;exitY=0.952;exitDx=0;exitDy=0;exitPerimeter=0;" edge="1" parent="1" source="m_qxUJUoMmuEMGVjWjaj-40" target="m_qxUJUoMmuEMGVjWjaj-16">
          <mxGeometry relative="1" as="geometry" />
        </mxCell>
        <mxCell id="m_qxUJUoMmuEMGVjWjaj-42" value="" style="endArrow=none;html=1;rounded=0;entryX=0;entryY=0.25;entryDx=0;entryDy=0;entryPerimeter=0;" edge="1" parent="1" target="m_qxUJUoMmuEMGVjWjaj-15">
          <mxGeometry width="50" height="50" relative="1" as="geometry">
            <mxPoint x="200" y="110" as="sourcePoint" />
            <mxPoint x="450" y="320" as="targetPoint" />
          </mxGeometry>
        </mxCell>
        <mxCell id="m_qxUJUoMmuEMGVjWjaj-43" value="" style="endArrow=none;html=1;rounded=0;" edge="1" parent="1" source="m_qxUJUoMmuEMGVjWjaj-40">
          <mxGeometry width="50" height="50" relative="1" as="geometry">
            <mxPoint x="220" y="160" as="sourcePoint" />
            <mxPoint x="220" y="130" as="targetPoint" />
            <Array as="points" />
          </mxGeometry>
        </mxCell>
        <mxCell id="m_qxUJUoMmuEMGVjWjaj-45" style="edgeStyle=orthogonalEdgeStyle;rounded=0;orthogonalLoop=1;jettySize=auto;html=1;entryX=1.2;entryY=0.65;entryDx=0;entryDy=0;entryPerimeter=0;" edge="1" parent="1">
          <mxGeometry relative="1" as="geometry">
            <mxPoint x="210" y="130" as="sourcePoint" />
            <mxPoint x="210" y="130" as="targetPoint" />
          </mxGeometry>
        </mxCell>
        <mxCell id="m_qxUJUoMmuEMGVjWjaj-46" style="edgeStyle=orthogonalEdgeStyle;rounded=0;orthogonalLoop=1;jettySize=auto;html=1;entryX=1.05;entryY=0.55;entryDx=0;entryDy=0;entryPerimeter=0;" edge="1" parent="1">
          <mxGeometry relative="1" as="geometry">
            <mxPoint x="210" y="130" as="sourcePoint" />
            <mxPoint x="210" y="130" as="targetPoint" />
          </mxGeometry>
        </mxCell>
        <mxCell id="m_qxUJUoMmuEMGVjWjaj-48" style="edgeStyle=orthogonalEdgeStyle;rounded=0;orthogonalLoop=1;jettySize=auto;html=1;entryX=0;entryY=0.75;entryDx=0;entryDy=0;entryPerimeter=0;" edge="1" parent="1" target="m_qxUJUoMmuEMGVjWjaj-15">
          <mxGeometry relative="1" as="geometry">
            <mxPoint x="220" y="130" as="sourcePoint" />
          </mxGeometry>
        </mxCell>
        <mxCell id="m_qxUJUoMmuEMGVjWjaj-49" value="" style="shape=xor;whiteSpace=wrap;html=1;" vertex="1" parent="1">
          <mxGeometry x="320" y="110" width="40" height="40" as="geometry" />
        </mxCell>
        <mxCell id="m_qxUJUoMmuEMGVjWjaj-50" style="edgeStyle=orthogonalEdgeStyle;rounded=0;orthogonalLoop=1;jettySize=auto;html=1;entryX=0.175;entryY=0.75;entryDx=0;entryDy=0;entryPerimeter=0;" edge="1" parent="1" source="m_qxUJUoMmuEMGVjWjaj-16" target="m_qxUJUoMmuEMGVjWjaj-49">
          <mxGeometry relative="1" as="geometry" />
        </mxCell>
        <mxCell id="m_qxUJUoMmuEMGVjWjaj-51" style="edgeStyle=orthogonalEdgeStyle;rounded=0;orthogonalLoop=1;jettySize=auto;html=1;exitX=1;exitY=0.5;exitDx=0;exitDy=0;exitPerimeter=0;entryX=0.175;entryY=0.25;entryDx=0;entryDy=0;entryPerimeter=0;" edge="1" parent="1" source="m_qxUJUoMmuEMGVjWjaj-15" target="m_qxUJUoMmuEMGVjWjaj-49">
          <mxGeometry relative="1" as="geometry" />
        </mxCell>
        <mxCell id="m_qxUJUoMmuEMGVjWjaj-52" value="" style="endArrow=none;html=1;rounded=0;entryDx=0;entryDy=0;entryPerimeter=0;entryX=-0.029;entryY=0.511;" edge="1" parent="1" target="m_qxUJUoMmuEMGVjWjaj-40">
          <mxGeometry width="50" height="50" relative="1" as="geometry">
            <mxPoint x="220" y="160" as="sourcePoint" />
            <mxPoint x="210" y="130" as="targetPoint" />
            <Array as="points" />
          </mxGeometry>
        </mxCell>
        <mxCell id="m_qxUJUoMmuEMGVjWjaj-40" value="" style="shape=waypoint;sketch=0;size=6;pointerEvents=1;points=[];fillColor=none;resizable=0;rotatable=0;perimeter=centerPerimeter;snapToPoint=1;" vertex="1" parent="1">
          <mxGeometry x="210" y="150" width="20" height="20" as="geometry" />
        </mxCell>
        <mxCell id="m_qxUJUoMmuEMGVjWjaj-53" style="edgeStyle=orthogonalEdgeStyle;rounded=0;orthogonalLoop=1;jettySize=auto;html=1;" edge="1" parent="1" source="m_qxUJUoMmuEMGVjWjaj-40" target="m_qxUJUoMmuEMGVjWjaj-40">
          <mxGeometry relative="1" as="geometry" />
        </mxCell>
        <mxCell id="m_qxUJUoMmuEMGVjWjaj-54" value="" style="endArrow=none;html=1;rounded=0;entryX=0;entryY=0.25;entryDx=0;entryDy=0;entryPerimeter=0;" edge="1" parent="1" target="m_qxUJUoMmuEMGVjWjaj-19">
          <mxGeometry width="50" height="50" relative="1" as="geometry">
            <mxPoint x="230" y="160" as="sourcePoint" />
            <mxPoint x="310" y="190" as="targetPoint" />
            <Array as="points">
              <mxPoint x="300" y="160" />
              <mxPoint x="300" y="170" />
            </Array>
          </mxGeometry>
        </mxCell>
        <mxCell id="m_qxUJUoMmuEMGVjWjaj-55" value="" style="endArrow=none;html=1;rounded=0;entryX=0;entryY=0.75;entryDx=0;entryDy=0;entryPerimeter=0;" edge="1" parent="1" target="m_qxUJUoMmuEMGVjWjaj-19">
          <mxGeometry width="50" height="50" relative="1" as="geometry">
            <mxPoint x="170" y="190" as="sourcePoint" />
            <mxPoint x="330" y="150" as="targetPoint" />
          </mxGeometry>
        </mxCell>
        <mxCell id="m_qxUJUoMmuEMGVjWjaj-56" value="" style="shape=xor;whiteSpace=wrap;html=1;" vertex="1" parent="1">
          <mxGeometry x="380" y="120" width="40" height="40" as="geometry" />
        </mxCell>
        <mxCell id="m_qxUJUoMmuEMGVjWjaj-57" style="edgeStyle=orthogonalEdgeStyle;rounded=0;orthogonalLoop=1;jettySize=auto;html=1;entryX=0.175;entryY=0.25;entryDx=0;entryDy=0;entryPerimeter=0;" edge="1" parent="1" source="m_qxUJUoMmuEMGVjWjaj-49" target="m_qxUJUoMmuEMGVjWjaj-56">
          <mxGeometry relative="1" as="geometry" />
        </mxCell>
        <mxCell id="m_qxUJUoMmuEMGVjWjaj-59" style="edgeStyle=orthogonalEdgeStyle;rounded=0;orthogonalLoop=1;jettySize=auto;html=1;exitX=1;exitY=0.5;exitDx=0;exitDy=0;exitPerimeter=0;entryX=0.175;entryY=0.75;entryDx=0;entryDy=0;entryPerimeter=0;" edge="1" parent="1" source="m_qxUJUoMmuEMGVjWjaj-19" target="m_qxUJUoMmuEMGVjWjaj-56">
          <mxGeometry relative="1" as="geometry" />
        </mxCell>
        <mxCell id="m_qxUJUoMmuEMGVjWjaj-60" value="" style="endArrow=none;html=1;rounded=0;entryX=0;entryY=0.75;entryDx=0;entryDy=0;entryPerimeter=0;" edge="1" parent="1" target="m_qxUJUoMmuEMGVjWjaj-18">
          <mxGeometry width="50" height="50" relative="1" as="geometry">
            <mxPoint x="240" y="200" as="sourcePoint" />
            <mxPoint x="350" y="160" as="targetPoint" />
          </mxGeometry>
        </mxCell>
        <mxCell id="m_qxUJUoMmuEMGVjWjaj-61" value="" style="endArrow=none;html=1;rounded=0;entryX=0;entryY=0.5;entryDx=0;entryDy=0;entryPerimeter=0;" edge="1" parent="1" target="m_qxUJUoMmuEMGVjWjaj-18">
          <mxGeometry width="50" height="50" relative="1" as="geometry">
            <mxPoint x="290" y="190" as="sourcePoint" />
            <mxPoint x="350" y="160" as="targetPoint" />
          </mxGeometry>
        </mxCell>
        <mxCell id="m_qxUJUoMmuEMGVjWjaj-62" value="" style="shape=xor;whiteSpace=wrap;html=1;" vertex="1" parent="1">
          <mxGeometry x="450" y="130" width="40" height="40" as="geometry" />
        </mxCell>
        <mxCell id="m_qxUJUoMmuEMGVjWjaj-64" style="edgeStyle=orthogonalEdgeStyle;rounded=0;orthogonalLoop=1;jettySize=auto;html=1;entryX=0.175;entryY=0.25;entryDx=0;entryDy=0;entryPerimeter=0;" edge="1" parent="1" source="m_qxUJUoMmuEMGVjWjaj-56" target="m_qxUJUoMmuEMGVjWjaj-62">
          <mxGeometry relative="1" as="geometry" />
        </mxCell>
        <mxCell id="m_qxUJUoMmuEMGVjWjaj-65" style="edgeStyle=orthogonalEdgeStyle;rounded=0;orthogonalLoop=1;jettySize=auto;html=1;entryX=0.175;entryY=0.75;entryDx=0;entryDy=0;entryPerimeter=0;" edge="1" parent="1" source="m_qxUJUoMmuEMGVjWjaj-18" target="m_qxUJUoMmuEMGVjWjaj-62">
          <mxGeometry relative="1" as="geometry" />
        </mxCell>
        <mxCell id="m_qxUJUoMmuEMGVjWjaj-66" value="" style="endArrow=none;html=1;rounded=0;entryX=0;entryY=0.25;entryDx=0;entryDy=0;entryPerimeter=0;" edge="1" parent="1" target="m_qxUJUoMmuEMGVjWjaj-17">
          <mxGeometry width="50" height="50" relative="1" as="geometry">
            <mxPoint x="360" y="190" as="sourcePoint" />
            <mxPoint x="340" y="180" as="targetPoint" />
          </mxGeometry>
        </mxCell>
        <mxCell id="m_qxUJUoMmuEMGVjWjaj-67" value="" style="endArrow=none;html=1;rounded=0;entryX=0;entryY=0.75;entryDx=0;entryDy=0;entryPerimeter=0;" edge="1" parent="1" target="m_qxUJUoMmuEMGVjWjaj-17">
          <mxGeometry width="50" height="50" relative="1" as="geometry">
            <mxPoint x="200" y="210" as="sourcePoint" />
            <mxPoint x="340" y="180" as="targetPoint" />
          </mxGeometry>
        </mxCell>
        <mxCell id="m_qxUJUoMmuEMGVjWjaj-71" style="edgeStyle=orthogonalEdgeStyle;rounded=0;orthogonalLoop=1;jettySize=auto;html=1;" edge="1" parent="1" source="m_qxUJUoMmuEMGVjWjaj-68">
          <mxGeometry relative="1" as="geometry">
            <mxPoint x="590" y="180" as="targetPoint" />
          </mxGeometry>
        </mxCell>
        <mxCell id="m_qxUJUoMmuEMGVjWjaj-68" value="" style="shape=xor;whiteSpace=wrap;html=1;" vertex="1" parent="1">
          <mxGeometry x="520" y="160" width="40" height="40" as="geometry" />
        </mxCell>
        <mxCell id="m_qxUJUoMmuEMGVjWjaj-69" style="edgeStyle=orthogonalEdgeStyle;rounded=0;orthogonalLoop=1;jettySize=auto;html=1;entryX=0.175;entryY=0.75;entryDx=0;entryDy=0;entryPerimeter=0;" edge="1" parent="1" source="m_qxUJUoMmuEMGVjWjaj-17" target="m_qxUJUoMmuEMGVjWjaj-68">
          <mxGeometry relative="1" as="geometry" />
        </mxCell>
        <mxCell id="m_qxUJUoMmuEMGVjWjaj-70" style="edgeStyle=orthogonalEdgeStyle;rounded=0;orthogonalLoop=1;jettySize=auto;html=1;exitX=1;exitY=0.5;exitDx=0;exitDy=0;exitPerimeter=0;entryX=0.175;entryY=0.25;entryDx=0;entryDy=0;entryPerimeter=0;" edge="1" parent="1" source="m_qxUJUoMmuEMGVjWjaj-62" target="m_qxUJUoMmuEMGVjWjaj-68">
          <mxGeometry relative="1" as="geometry" />
        </mxCell>
        <mxCell id="m_qxUJUoMmuEMGVjWjaj-72" value="RED" style="text;html=1;align=center;verticalAlign=middle;resizable=0;points=[];autosize=1;fontColor=#FF0000;fontStyle=1" vertex="1" parent="1">
          <mxGeometry x="560" y="155" width="50" height="30" as="geometry" />
        </mxCell>
        <mxCell id="m_qxUJUoMmuEMGVjWjaj-75" value="" style="shape=or;whiteSpace=wrap;html=1;" vertex="1" parent="1">
          <mxGeometry x="300" y="240" width="35" height="40" as="geometry" />
        </mxCell>
        <mxCell id="m_qxUJUoMmuEMGVjWjaj-85" value="" style="shape=xor;whiteSpace=wrap;html=1;" vertex="1" parent="1">
          <mxGeometry x="365" y="250" width="30" height="40" as="geometry" />
        </mxCell>
        <mxCell id="m_qxUJUoMmuEMGVjWjaj-86" value="" style="endArrow=none;html=1;rounded=0;" edge="1" parent="1">
          <mxGeometry width="50" height="50" relative="1" as="geometry">
            <mxPoint x="170" y="260" as="sourcePoint" />
            <mxPoint x="250" y="260" as="targetPoint" />
          </mxGeometry>
        </mxCell>
        <mxCell id="m_qxUJUoMmuEMGVjWjaj-87" value="" style="shape=waypoint;sketch=0;size=6;pointerEvents=1;points=[];fillColor=none;resizable=0;rotatable=0;perimeter=centerPerimeter;snapToPoint=1;" vertex="1" parent="1">
          <mxGeometry x="240" y="250" width="20" height="20" as="geometry" />
        </mxCell>
        <mxCell id="m_qxUJUoMmuEMGVjWjaj-89" style="edgeStyle=orthogonalEdgeStyle;rounded=0;orthogonalLoop=1;jettySize=auto;html=1;entryX=0;entryY=0.25;entryDx=0;entryDy=0;entryPerimeter=0;" edge="1" parent="1" source="m_qxUJUoMmuEMGVjWjaj-87" target="m_qxUJUoMmuEMGVjWjaj-75">
          <mxGeometry relative="1" as="geometry" />
        </mxCell>
        <mxCell id="m_qxUJUoMmuEMGVjWjaj-92" value="" style="endArrow=none;html=1;rounded=0;" edge="1" parent="1" target="m_qxUJUoMmuEMGVjWjaj-91">
          <mxGeometry width="50" height="50" relative="1" as="geometry">
            <mxPoint x="200" y="269.38" as="sourcePoint" />
            <mxPoint x="280" y="269.38" as="targetPoint" />
          </mxGeometry>
        </mxCell>
        <mxCell id="m_qxUJUoMmuEMGVjWjaj-91" value="" style="shape=waypoint;sketch=0;size=6;pointerEvents=1;points=[];fillColor=none;resizable=0;rotatable=0;perimeter=centerPerimeter;snapToPoint=1;" vertex="1" parent="1">
          <mxGeometry x="240" y="260" width="20" height="20" as="geometry" />
        </mxCell>
        <mxCell id="m_qxUJUoMmuEMGVjWjaj-93" style="edgeStyle=orthogonalEdgeStyle;rounded=0;orthogonalLoop=1;jettySize=auto;html=1;entryX=0;entryY=0.75;entryDx=0;entryDy=0;entryPerimeter=0;" edge="1" parent="1" source="m_qxUJUoMmuEMGVjWjaj-91" target="m_qxUJUoMmuEMGVjWjaj-75">
          <mxGeometry relative="1" as="geometry" />
        </mxCell>
        <mxCell id="m_qxUJUoMmuEMGVjWjaj-98" value="" style="shape=or;whiteSpace=wrap;html=1;" vertex="1" parent="1">
          <mxGeometry x="300" y="290" width="35" height="40" as="geometry" />
        </mxCell>
        <mxCell id="m_qxUJUoMmuEMGVjWjaj-99" value="" style="endArrow=none;html=1;rounded=0;entryX=0;entryY=0.25;entryDx=0;entryDy=0;entryPerimeter=0;" edge="1" parent="1" target="m_qxUJUoMmuEMGVjWjaj-98">
          <mxGeometry width="50" height="50" relative="1" as="geometry">
            <mxPoint x="270" y="260" as="sourcePoint" />
            <mxPoint x="360" y="280" as="targetPoint" />
            <Array as="points">
              <mxPoint x="270" y="300" />
            </Array>
          </mxGeometry>
        </mxCell>
        <mxCell id="m_qxUJUoMmuEMGVjWjaj-100" value="" style="endArrow=none;html=1;rounded=0;entryX=0;entryY=0.75;entryDx=0;entryDy=0;entryPerimeter=0;" edge="1" parent="1" target="m_qxUJUoMmuEMGVjWjaj-98">
          <mxGeometry width="50" height="50" relative="1" as="geometry">
            <mxPoint x="240" y="320" as="sourcePoint" />
            <mxPoint x="360" y="280" as="targetPoint" />
          </mxGeometry>
        </mxCell>
        <mxCell id="m_qxUJUoMmuEMGVjWjaj-101" style="edgeStyle=orthogonalEdgeStyle;rounded=0;orthogonalLoop=1;jettySize=auto;html=1;entryX=0.175;entryY=0.25;entryDx=0;entryDy=0;entryPerimeter=0;" edge="1" parent="1" source="m_qxUJUoMmuEMGVjWjaj-75" target="m_qxUJUoMmuEMGVjWjaj-85">
          <mxGeometry relative="1" as="geometry" />
        </mxCell>
        <mxCell id="m_qxUJUoMmuEMGVjWjaj-102" style="edgeStyle=orthogonalEdgeStyle;rounded=0;orthogonalLoop=1;jettySize=auto;html=1;exitX=1;exitY=0.5;exitDx=0;exitDy=0;exitPerimeter=0;entryX=0.175;entryY=0.75;entryDx=0;entryDy=0;entryPerimeter=0;" edge="1" parent="1" source="m_qxUJUoMmuEMGVjWjaj-98" target="m_qxUJUoMmuEMGVjWjaj-85">
          <mxGeometry relative="1" as="geometry" />
        </mxCell>
        <mxCell id="m_qxUJUoMmuEMGVjWjaj-103" value="" style="shape=or;whiteSpace=wrap;html=1;" vertex="1" parent="1">
          <mxGeometry x="362.5" y="300" width="35" height="40" as="geometry" />
        </mxCell>
        <mxCell id="m_qxUJUoMmuEMGVjWjaj-104" value="" style="endArrow=none;html=1;rounded=0;entryX=0;entryY=0.25;entryDx=0;entryDy=0;entryPerimeter=0;" edge="1" parent="1" target="m_qxUJUoMmuEMGVjWjaj-103">
          <mxGeometry width="50" height="50" relative="1" as="geometry">
            <mxPoint x="270" y="300" as="sourcePoint" />
            <mxPoint x="370" y="250" as="targetPoint" />
            <Array as="points">
              <mxPoint x="270" y="310" />
              <mxPoint x="310" y="310" />
            </Array>
          </mxGeometry>
        </mxCell>
        <mxCell id="m_qxUJUoMmuEMGVjWjaj-105" value="" style="endArrow=none;html=1;rounded=0;entryX=0;entryY=0.75;entryDx=0;entryDy=0;entryPerimeter=0;" edge="1" parent="1" target="m_qxUJUoMmuEMGVjWjaj-103">
          <mxGeometry width="50" height="50" relative="1" as="geometry">
            <mxPoint x="220" y="330" as="sourcePoint" />
            <mxPoint x="370" y="250" as="targetPoint" />
          </mxGeometry>
        </mxCell>
        <mxCell id="m_qxUJUoMmuEMGVjWjaj-107" value="" style="shape=xor;whiteSpace=wrap;html=1;" vertex="1" parent="1">
          <mxGeometry x="425" y="260" width="30" height="40" as="geometry" />
        </mxCell>
        <mxCell id="m_qxUJUoMmuEMGVjWjaj-108" style="edgeStyle=orthogonalEdgeStyle;rounded=0;orthogonalLoop=1;jettySize=auto;html=1;entryX=0.175;entryY=0.75;entryDx=0;entryDy=0;entryPerimeter=0;" edge="1" parent="1" source="m_qxUJUoMmuEMGVjWjaj-103" target="m_qxUJUoMmuEMGVjWjaj-107">
          <mxGeometry relative="1" as="geometry" />
        </mxCell>
        <mxCell id="m_qxUJUoMmuEMGVjWjaj-109" style="edgeStyle=orthogonalEdgeStyle;rounded=0;orthogonalLoop=1;jettySize=auto;html=1;entryX=0.313;entryY=0.259;entryDx=0;entryDy=0;entryPerimeter=0;" edge="1" parent="1" source="m_qxUJUoMmuEMGVjWjaj-85" target="m_qxUJUoMmuEMGVjWjaj-107">
          <mxGeometry relative="1" as="geometry" />
        </mxCell>
        <mxCell id="m_qxUJUoMmuEMGVjWjaj-110" value="" style="shape=or;whiteSpace=wrap;html=1;" vertex="1" parent="1">
          <mxGeometry x="425" y="310" width="35" height="40" as="geometry" />
        </mxCell>
        <mxCell id="m_qxUJUoMmuEMGVjWjaj-111" value="" style="endArrow=none;html=1;rounded=0;entryX=0;entryY=0.75;entryDx=0;entryDy=0;entryPerimeter=0;" edge="1" parent="1" target="m_qxUJUoMmuEMGVjWjaj-110">
          <mxGeometry width="50" height="50" relative="1" as="geometry">
            <mxPoint x="350" y="330" as="sourcePoint" />
            <mxPoint x="410" y="280" as="targetPoint" />
            <Array as="points">
              <mxPoint x="350" y="340" />
            </Array>
          </mxGeometry>
        </mxCell>
        <mxCell id="m_qxUJUoMmuEMGVjWjaj-112" value="" style="endArrow=none;html=1;rounded=0;entryX=0;entryY=0.5;entryDx=0;entryDy=0;entryPerimeter=0;" edge="1" parent="1" target="m_qxUJUoMmuEMGVjWjaj-110">
          <mxGeometry width="50" height="50" relative="1" as="geometry">
            <mxPoint x="280" y="320" as="sourcePoint" />
            <mxPoint x="480" y="330" as="targetPoint" />
            <Array as="points">
              <mxPoint x="350" y="320" />
              <mxPoint x="380" y="320" />
              <mxPoint x="380" y="330" />
            </Array>
          </mxGeometry>
        </mxCell>
        <mxCell id="m_qxUJUoMmuEMGVjWjaj-113" value="" style="shape=xor;whiteSpace=wrap;html=1;" vertex="1" parent="1">
          <mxGeometry x="490" y="270" width="30" height="40" as="geometry" />
        </mxCell>
        <mxCell id="m_qxUJUoMmuEMGVjWjaj-114" style="edgeStyle=orthogonalEdgeStyle;rounded=0;orthogonalLoop=1;jettySize=auto;html=1;exitX=1;exitY=0.5;exitDx=0;exitDy=0;exitPerimeter=0;entryX=0.146;entryY=0.631;entryDx=0;entryDy=0;entryPerimeter=0;" edge="1" parent="1" source="m_qxUJUoMmuEMGVjWjaj-110" target="m_qxUJUoMmuEMGVjWjaj-113">
          <mxGeometry relative="1" as="geometry" />
        </mxCell>
        <mxCell id="m_qxUJUoMmuEMGVjWjaj-115" style="edgeStyle=orthogonalEdgeStyle;rounded=0;orthogonalLoop=1;jettySize=auto;html=1;entryX=0.175;entryY=0.25;entryDx=0;entryDy=0;entryPerimeter=0;" edge="1" parent="1" source="m_qxUJUoMmuEMGVjWjaj-107" target="m_qxUJUoMmuEMGVjWjaj-113">
          <mxGeometry relative="1" as="geometry" />
        </mxCell>
        <mxCell id="m_qxUJUoMmuEMGVjWjaj-116" value="" style="shape=or;whiteSpace=wrap;html=1;" vertex="1" parent="1">
          <mxGeometry x="487.5" y="320" width="35" height="40" as="geometry" />
        </mxCell>
        <mxCell id="m_qxUJUoMmuEMGVjWjaj-117" value="" style="endArrow=none;html=1;rounded=0;entryX=0;entryY=0.25;entryDx=0;entryDy=0;entryPerimeter=0;" edge="1" parent="1" target="m_qxUJUoMmuEMGVjWjaj-116">
          <mxGeometry width="50" height="50" relative="1" as="geometry">
            <mxPoint x="260" y="270" as="sourcePoint" />
            <mxPoint x="420" y="310" as="targetPoint" />
            <Array as="points">
              <mxPoint x="260" y="330" />
            </Array>
          </mxGeometry>
        </mxCell>
        <mxCell id="m_qxUJUoMmuEMGVjWjaj-118" value="" style="endArrow=none;html=1;rounded=0;entryX=0;entryY=0.5;entryDx=0;entryDy=0;entryPerimeter=0;" edge="1" parent="1" target="m_qxUJUoMmuEMGVjWjaj-116">
          <mxGeometry width="50" height="50" relative="1" as="geometry">
            <mxPoint x="400" y="340" as="sourcePoint" />
            <mxPoint x="410" y="310" as="targetPoint" />
          </mxGeometry>
        </mxCell>
        <mxCell id="m_qxUJUoMmuEMGVjWjaj-123" style="edgeStyle=orthogonalEdgeStyle;rounded=0;orthogonalLoop=1;jettySize=auto;html=1;" edge="1" parent="1" source="m_qxUJUoMmuEMGVjWjaj-120">
          <mxGeometry relative="1" as="geometry">
            <mxPoint x="630" y="310" as="targetPoint" />
          </mxGeometry>
        </mxCell>
        <mxCell id="m_qxUJUoMmuEMGVjWjaj-120" value="" style="shape=xor;whiteSpace=wrap;html=1;" vertex="1" parent="1">
          <mxGeometry x="560" y="290" width="40" height="40" as="geometry" />
        </mxCell>
        <mxCell id="m_qxUJUoMmuEMGVjWjaj-121" style="edgeStyle=orthogonalEdgeStyle;rounded=0;orthogonalLoop=1;jettySize=auto;html=1;entryX=0.175;entryY=0.75;entryDx=0;entryDy=0;entryPerimeter=0;" edge="1" parent="1" source="m_qxUJUoMmuEMGVjWjaj-116" target="m_qxUJUoMmuEMGVjWjaj-120">
          <mxGeometry relative="1" as="geometry" />
        </mxCell>
        <mxCell id="m_qxUJUoMmuEMGVjWjaj-122" style="edgeStyle=orthogonalEdgeStyle;rounded=0;orthogonalLoop=1;jettySize=auto;html=1;entryX=0.175;entryY=0.25;entryDx=0;entryDy=0;entryPerimeter=0;" edge="1" parent="1" source="m_qxUJUoMmuEMGVjWjaj-113" target="m_qxUJUoMmuEMGVjWjaj-120">
          <mxGeometry relative="1" as="geometry" />
        </mxCell>
        <mxCell id="m_qxUJUoMmuEMGVjWjaj-127" value="&lt;font style=&quot;color: rgb(0, 204, 0);&quot;&gt;GREEN&lt;/font&gt;" style="text;html=1;align=center;verticalAlign=middle;resizable=0;points=[];autosize=1;strokeColor=none;fillColor=none;" vertex="1" parent="1">
          <mxGeometry x="595" y="288" width="70" height="30" as="geometry" />
        </mxCell>
        <mxCell id="m_qxUJUoMmuEMGVjWjaj-130" value="" style="shape=or;whiteSpace=wrap;html=1;" vertex="1" parent="1">
          <mxGeometry x="275" y="380" width="35" height="40" as="geometry" />
        </mxCell>
        <mxCell id="m_qxUJUoMmuEMGVjWjaj-131" value="" style="shape=or;whiteSpace=wrap;html=1;" vertex="1" parent="1">
          <mxGeometry x="275" y="430" width="35" height="40" as="geometry" />
        </mxCell>
        <mxCell id="m_qxUJUoMmuEMGVjWjaj-132" value="" style="endArrow=none;html=1;rounded=0;exitX=0;exitY=0.25;exitDx=0;exitDy=0;exitPerimeter=0;" edge="1" parent="1" source="m_qxUJUoMmuEMGVjWjaj-130">
          <mxGeometry width="50" height="50" relative="1" as="geometry">
            <mxPoint x="320" y="300" as="sourcePoint" />
            <mxPoint x="230" y="160" as="targetPoint" />
            <Array as="points">
              <mxPoint x="230" y="390" />
            </Array>
          </mxGeometry>
        </mxCell>
        <mxCell id="m_qxUJUoMmuEMGVjWjaj-134" value="" style="endArrow=none;html=1;rounded=0;exitX=0;exitY=0.5;exitDx=0;exitDy=0;exitPerimeter=0;" edge="1" parent="1" source="m_qxUJUoMmuEMGVjWjaj-130">
          <mxGeometry width="50" height="50" relative="1" as="geometry">
            <mxPoint x="350" y="330" as="sourcePoint" />
            <mxPoint x="170" y="320" as="targetPoint" />
            <Array as="points">
              <mxPoint x="170" y="400" />
            </Array>
          </mxGeometry>
        </mxCell>
        <mxCell id="m_qxUJUoMmuEMGVjWjaj-135" value="" style="endArrow=none;html=1;rounded=0;entryX=0;entryY=0.25;entryDx=0;entryDy=0;entryPerimeter=0;" edge="1" parent="1" target="m_qxUJUoMmuEMGVjWjaj-131">
          <mxGeometry width="50" height="50" relative="1" as="geometry">
            <mxPoint x="260" y="260" as="sourcePoint" />
            <mxPoint x="260" y="430" as="targetPoint" />
            <Array as="points">
              <mxPoint x="260" y="440" />
            </Array>
          </mxGeometry>
        </mxCell>
        <mxCell id="m_qxUJUoMmuEMGVjWjaj-136" value="" style="endArrow=none;html=1;rounded=0;entryX=0;entryY=0.75;entryDx=0;entryDy=0;entryPerimeter=0;" edge="1" parent="1" target="m_qxUJUoMmuEMGVjWjaj-131">
          <mxGeometry width="50" height="50" relative="1" as="geometry">
            <mxPoint x="220" y="400" as="sourcePoint" />
            <mxPoint x="380" y="310" as="targetPoint" />
            <Array as="points">
              <mxPoint x="220" y="460" />
            </Array>
          </mxGeometry>
        </mxCell>
        <mxCell id="m_qxUJUoMmuEMGVjWjaj-137" value="" style="shape=xor;whiteSpace=wrap;html=1;" vertex="1" parent="1">
          <mxGeometry x="350" y="400" width="30" height="40" as="geometry" />
        </mxCell>
        <mxCell id="m_qxUJUoMmuEMGVjWjaj-138" style="edgeStyle=orthogonalEdgeStyle;rounded=0;orthogonalLoop=1;jettySize=auto;html=1;entryX=0.175;entryY=0.25;entryDx=0;entryDy=0;entryPerimeter=0;" edge="1" parent="1" source="m_qxUJUoMmuEMGVjWjaj-130" target="m_qxUJUoMmuEMGVjWjaj-137">
          <mxGeometry relative="1" as="geometry" />
        </mxCell>
        <mxCell id="m_qxUJUoMmuEMGVjWjaj-139" style="edgeStyle=orthogonalEdgeStyle;rounded=0;orthogonalLoop=1;jettySize=auto;html=1;entryX=0.175;entryY=0.75;entryDx=0;entryDy=0;entryPerimeter=0;" edge="1" parent="1" source="m_qxUJUoMmuEMGVjWjaj-131" target="m_qxUJUoMmuEMGVjWjaj-137">
          <mxGeometry relative="1" as="geometry" />
        </mxCell>
        <mxCell id="m_qxUJUoMmuEMGVjWjaj-141" value="" style="shape=or;whiteSpace=wrap;html=1;" vertex="1" parent="1">
          <mxGeometry x="345" y="450" width="35" height="40" as="geometry" />
        </mxCell>
        <mxCell id="m_qxUJUoMmuEMGVjWjaj-142" value="" style="endArrow=none;html=1;rounded=0;entryX=0;entryY=0.25;entryDx=0;entryDy=0;entryPerimeter=0;" edge="1" parent="1" target="m_qxUJUoMmuEMGVjWjaj-141">
          <mxGeometry width="50" height="50" relative="1" as="geometry">
            <mxPoint x="240" y="220" as="sourcePoint" />
            <mxPoint x="420" y="300" as="targetPoint" />
            <Array as="points">
              <mxPoint x="240" y="460" />
            </Array>
          </mxGeometry>
        </mxCell>
        <mxCell id="m_qxUJUoMmuEMGVjWjaj-143" value="" style="endArrow=none;html=1;rounded=0;entryX=0;entryY=0.75;entryDx=0;entryDy=0;entryPerimeter=0;" edge="1" parent="1" target="m_qxUJUoMmuEMGVjWjaj-141">
          <mxGeometry width="50" height="50" relative="1" as="geometry">
            <mxPoint x="200" y="360" as="sourcePoint" />
            <mxPoint x="410" y="330" as="targetPoint" />
            <Array as="points">
              <mxPoint x="200" y="480" />
            </Array>
          </mxGeometry>
        </mxCell>
        <mxCell id="m_qxUJUoMmuEMGVjWjaj-144" value="" style="shape=xor;whiteSpace=wrap;html=1;" vertex="1" parent="1">
          <mxGeometry x="420" y="410" width="30" height="40" as="geometry" />
        </mxCell>
        <mxCell id="m_qxUJUoMmuEMGVjWjaj-145" style="edgeStyle=orthogonalEdgeStyle;rounded=0;orthogonalLoop=1;jettySize=auto;html=1;entryX=0.175;entryY=0.25;entryDx=0;entryDy=0;entryPerimeter=0;" edge="1" parent="1" source="m_qxUJUoMmuEMGVjWjaj-137" target="m_qxUJUoMmuEMGVjWjaj-144">
          <mxGeometry relative="1" as="geometry" />
        </mxCell>
        <mxCell id="m_qxUJUoMmuEMGVjWjaj-146" style="edgeStyle=orthogonalEdgeStyle;rounded=0;orthogonalLoop=1;jettySize=auto;html=1;entryX=0.175;entryY=0.75;entryDx=0;entryDy=0;entryPerimeter=0;" edge="1" parent="1" source="m_qxUJUoMmuEMGVjWjaj-141" target="m_qxUJUoMmuEMGVjWjaj-144">
          <mxGeometry relative="1" as="geometry" />
        </mxCell>
        <mxCell id="m_qxUJUoMmuEMGVjWjaj-147" value="" style="shape=or;whiteSpace=wrap;html=1;" vertex="1" parent="1">
          <mxGeometry x="422.5" y="463" width="35" height="40" as="geometry" />
        </mxCell>
        <mxCell id="m_qxUJUoMmuEMGVjWjaj-148" value="" style="endArrow=none;html=1;rounded=0;entryX=0;entryY=0.25;entryDx=0;entryDy=0;entryPerimeter=0;" edge="1" parent="1" target="m_qxUJUoMmuEMGVjWjaj-147">
          <mxGeometry width="50" height="50" relative="1" as="geometry">
            <mxPoint x="180" y="440" as="sourcePoint" />
            <mxPoint x="420" y="440" as="targetPoint" />
            <Array as="points">
              <mxPoint x="180" y="470" />
            </Array>
          </mxGeometry>
        </mxCell>
        <mxCell id="m_qxUJUoMmuEMGVjWjaj-149" value="" style="endArrow=none;html=1;rounded=0;entryX=0;entryY=0.75;entryDx=0;entryDy=0;entryPerimeter=0;" edge="1" parent="1" target="m_qxUJUoMmuEMGVjWjaj-147">
          <mxGeometry width="50" height="50" relative="1" as="geometry">
            <mxPoint x="280" y="270" as="sourcePoint" />
            <mxPoint x="430" y="300" as="targetPoint" />
            <Array as="points">
              <mxPoint x="280" y="493" />
            </Array>
          </mxGeometry>
        </mxCell>
        <mxCell id="m_qxUJUoMmuEMGVjWjaj-153" style="edgeStyle=orthogonalEdgeStyle;rounded=0;orthogonalLoop=1;jettySize=auto;html=1;" edge="1" parent="1" source="m_qxUJUoMmuEMGVjWjaj-150">
          <mxGeometry relative="1" as="geometry">
            <mxPoint x="570" y="455" as="targetPoint" />
          </mxGeometry>
        </mxCell>
        <mxCell id="m_qxUJUoMmuEMGVjWjaj-150" value="" style="shape=xor;whiteSpace=wrap;html=1;" vertex="1" parent="1">
          <mxGeometry x="490" y="430" width="42.5" height="50" as="geometry" />
        </mxCell>
        <mxCell id="m_qxUJUoMmuEMGVjWjaj-151" style="edgeStyle=orthogonalEdgeStyle;rounded=0;orthogonalLoop=1;jettySize=auto;html=1;entryX=0.175;entryY=0.25;entryDx=0;entryDy=0;entryPerimeter=0;" edge="1" parent="1" source="m_qxUJUoMmuEMGVjWjaj-144" target="m_qxUJUoMmuEMGVjWjaj-150">
          <mxGeometry relative="1" as="geometry" />
        </mxCell>
        <mxCell id="m_qxUJUoMmuEMGVjWjaj-152" style="edgeStyle=orthogonalEdgeStyle;rounded=0;orthogonalLoop=1;jettySize=auto;html=1;entryX=0.175;entryY=0.75;entryDx=0;entryDy=0;entryPerimeter=0;" edge="1" parent="1" source="m_qxUJUoMmuEMGVjWjaj-147" target="m_qxUJUoMmuEMGVjWjaj-150">
          <mxGeometry relative="1" as="geometry" />
        </mxCell>
        <mxCell id="m_qxUJUoMmuEMGVjWjaj-154" value="&lt;font style=&quot;color: rgb(51, 51, 255);&quot;&gt;BLUE&lt;/font&gt;" style="text;html=1;align=center;verticalAlign=middle;resizable=0;points=[];autosize=1;strokeColor=none;fillColor=none;" vertex="1" parent="1">
          <mxGeometry x="535" y="428" width="50" height="30" as="geometry" />
        </mxCell>
      </root>
    </mxGraphModel>
  </diagram>
</mxfile>
